<?xml version="1.0" encoding="UTF-8" standalone="no"?>
<!DOCTYPE svg PUBLIC "-//W3C//DTD SVG 1.1//EN"
 "http://www.w3.org/Graphics/SVG/1.1/DTD/svg11.dtd">
<!-- Generated by graphviz version 7.0.5 (20221223.1930)
 -->
<!-- Pages: 1 -->
<svg width="1616pt" height="404pt"
 viewBox="0.00 0.00 1615.84 404.00" xmlns="http://www.w3.org/2000/svg" xmlns:xlink="http://www.w3.org/1999/xlink">
<g id="graph0" class="graph" transform="scale(1 1) rotate(0) translate(4 400)">
<polygon fill="white" stroke="none" points="-4,4 -4,-400 1611.84,-400 1611.84,4 -4,4"/>
<!-- [root] module.servers.aws_instance.web&#45;east (expand) -->
<g id="node1" class="node">
<title>[root] module.servers.aws_instance.web&#45;east (expand)</title>
<polygon fill="none" stroke="black" points="1081.56,-180 794.56,-180 794.56,-144 1081.56,-144 1081.56,-180"/>
<text text-anchor="middle" x="938.06" y="-158.3" font-family="Times,serif" font-size="14.00">module.servers.aws_instance.web&#45;east</text>
</g>
<!-- [root] provider[&quot;registry.terraform.io/hashicorp/aws&quot;] -->
<g id="node3" class="node">
<title>[root] provider[&quot;registry.terraform.io/hashicorp/aws&quot;]</title>
<polygon fill="none" stroke="black" points="361.06,-108 21.72,-90 361.06,-72 700.39,-90 361.06,-108"/>
<text text-anchor="middle" x="361.06" y="-86.3" font-family="Times,serif" font-size="14.00">provider[&quot;registry.terraform.io/hashicorp/aws&quot;]</text>
</g>
<!-- [root] module.servers.aws_instance.web&#45;east (expand)&#45;&gt;[root] provider[&quot;registry.terraform.io/hashicorp/aws&quot;] -->
<g id="edge5" class="edge">
<title>[root] module.servers.aws_instance.web&#45;east (expand)&#45;&gt;[root] provider[&quot;registry.terraform.io/hashicorp/aws&quot;]</title>
<path fill="none" stroke="black" d="M794.31,-143.56C694.82,-131.49 564.34,-115.66 472.66,-104.54"/>
<polygon fill="black" stroke="black" points="473.25,-101.09 462.9,-103.36 472.4,-108.03 473.25,-101.09"/>
</g>
<!-- [root] module.servers.var.image_id (expand) -->
<g id="node6" class="node">
<title>[root] module.servers.var.image_id (expand)</title>
<ellipse fill="none" stroke="black" cx="938.06" cy="-90" rx="220.16" ry="18"/>
<text text-anchor="middle" x="938.06" y="-86.3" font-family="Times,serif" font-size="14.00">[root] module.servers.var.image_id (expand)</text>
</g>
<!-- [root] module.servers.aws_instance.web&#45;east (expand)&#45;&gt;[root] module.servers.var.image_id (expand) -->
<g id="edge3" class="edge">
<title>[root] module.servers.aws_instance.web&#45;east (expand)&#45;&gt;[root] module.servers.var.image_id (expand)</title>
<path fill="none" stroke="black" d="M938.06,-143.7C938.06,-136.41 938.06,-127.73 938.06,-119.54"/>
<polygon fill="black" stroke="black" points="941.56,-119.62 938.06,-109.62 934.56,-119.62 941.56,-119.62"/>
</g>
<!-- [root] module.servers.var.servers (expand) -->
<g id="node7" class="node">
<title>[root] module.servers.var.servers (expand)</title>
<ellipse fill="none" stroke="black" cx="1392.06" cy="-90" rx="215.56" ry="18"/>
<text text-anchor="middle" x="1392.06" y="-86.3" font-family="Times,serif" font-size="14.00">[root] module.servers.var.servers (expand)</text>
</g>
<!-- [root] module.servers.aws_instance.web&#45;east (expand)&#45;&gt;[root] module.servers.var.servers (expand) -->
<g id="edge4" class="edge">
<title>[root] module.servers.aws_instance.web&#45;east (expand)&#45;&gt;[root] module.servers.var.servers (expand)</title>
<path fill="none" stroke="black" d="M1051.45,-143.52C1121.75,-132.68 1211.64,-118.82 1281.42,-108.06"/>
<polygon fill="black" stroke="black" points="1281.6,-111.57 1290.95,-106.59 1280.53,-104.65 1281.6,-111.57"/>
</g>
<!-- [root] module.servers.data.aws_ami.ubuntu (expand) -->
<g id="node2" class="node">
<title>[root] module.servers.data.aws_ami.ubuntu (expand)</title>
<polygon fill="none" stroke="black" points="395.06,-180 123.06,-180 123.06,-144 395.06,-144 395.06,-180"/>
<text text-anchor="middle" x="259.06" y="-158.3" font-family="Times,serif" font-size="14.00">module.servers.data.aws_ami.ubuntu</text>
</g>
<!-- [root] module.servers.data.aws_ami.ubuntu (expand)&#45;&gt;[root] provider[&quot;registry.terraform.io/hashicorp/aws&quot;] -->
<g id="edge7" class="edge">
<title>[root] module.servers.data.aws_ami.ubuntu (expand)&#45;&gt;[root] provider[&quot;registry.terraform.io/hashicorp/aws&quot;]</title>
<path fill="none" stroke="black" d="M284.53,-143.52C297.76,-134.44 314.08,-123.23 328.25,-113.51"/>
<polygon fill="black" stroke="black" points="330.14,-116.46 336.4,-107.92 326.17,-110.69 330.14,-116.46"/>
</g>
<!-- [root] module.servers (expand) -->
<g id="node8" class="node">
<title>[root] module.servers (expand)</title>
<ellipse fill="none" stroke="black" cx="938.06" cy="-18" rx="157.07" ry="18"/>
<text text-anchor="middle" x="938.06" y="-14.3" font-family="Times,serif" font-size="14.00">[root] module.servers (expand)</text>
</g>
<!-- [root] module.servers.data.aws_ami.ubuntu (expand)&#45;&gt;[root] module.servers (expand) -->
<g id="edge6" class="edge">
<title>[root] module.servers.data.aws_ami.ubuntu (expand)&#45;&gt;[root] module.servers (expand)</title>
<path fill="none" stroke="black" d="M122.59,-150.69C44.6,-139.79 -29.9,-117.49 13.06,-72 38.71,-44.83 514.69,-29.18 773.58,-22.64"/>
<polygon fill="black" stroke="black" points="773.56,-26.14 783.47,-22.39 773.38,-19.14 773.56,-26.14"/>
</g>
<!-- [root] module.servers (close) -->
<g id="node4" class="node">
<title>[root] module.servers (close)</title>
<ellipse fill="none" stroke="black" cx="344.06" cy="-306" rx="152.17" ry="18"/>
<text text-anchor="middle" x="344.06" y="-302.3" font-family="Times,serif" font-size="14.00">[root] module.servers (close)</text>
</g>
<!-- [root] module.servers (close)&#45;&gt;[root] module.servers.data.aws_ami.ubuntu (expand) -->
<g id="edge1" class="edge">
<title>[root] module.servers (close)&#45;&gt;[root] module.servers.data.aws_ami.ubuntu (expand)</title>
<path fill="none" stroke="black" d="M232.86,-293.37C179.75,-285.29 124.26,-272.25 108.06,-252 83.24,-220.99 122.99,-198.46 167.91,-183.83"/>
<polygon fill="black" stroke="black" points="168.82,-187.21 177.34,-180.91 166.75,-180.53 168.82,-187.21"/>
</g>
<!-- [root] module.servers.output.nome_dns_web&#45;east (expand) -->
<g id="node5" class="node">
<title>[root] module.servers.output.nome_dns_web&#45;east (expand)</title>
<ellipse fill="none" stroke="black" cx="1040.06" cy="-234" rx="278.65" ry="18"/>
<text text-anchor="middle" x="1040.06" y="-230.3" font-family="Times,serif" font-size="14.00">[root] module.servers.output.nome_dns_web&#45;east (expand)</text>
</g>
<!-- [root] module.servers (close)&#45;&gt;[root] module.servers.output.nome_dns_web&#45;east (expand) -->
<g id="edge2" class="edge">
<title>[root] module.servers (close)&#45;&gt;[root] module.servers.output.nome_dns_web&#45;east (expand)</title>
<path fill="none" stroke="black" d="M457.04,-293.64C572.53,-282.02 752.85,-263.89 882.37,-250.86"/>
<polygon fill="black" stroke="black" points="882.46,-254.37 892.06,-249.88 881.76,-247.4 882.46,-254.37"/>
</g>
<!-- [root] module.servers.output.nome_dns_web&#45;east (expand)&#45;&gt;[root] module.servers.aws_instance.web&#45;east (expand) -->
<g id="edge8" class="edge">
<title>[root] module.servers.output.nome_dns_web&#45;east (expand)&#45;&gt;[root] module.servers.aws_instance.web&#45;east (expand)</title>
<path fill="none" stroke="black" d="M1014.84,-215.7C1002.09,-206.95 986.42,-196.19 972.57,-186.69"/>
<polygon fill="black" stroke="black" points="974.81,-183.98 964.58,-181.2 970.84,-189.75 974.81,-183.98"/>
</g>
<!-- [root] module.servers.var.image_id (expand)&#45;&gt;[root] module.servers (expand) -->
<g id="edge9" class="edge">
<title>[root] module.servers.var.image_id (expand)&#45;&gt;[root] module.servers (expand)</title>
<path fill="none" stroke="black" d="M938.06,-71.7C938.06,-64.41 938.06,-55.73 938.06,-47.54"/>
<polygon fill="black" stroke="black" points="941.56,-47.62 938.06,-37.62 934.56,-47.62 941.56,-47.62"/>
</g>
<!-- [root] module.servers.var.servers (expand)&#45;&gt;[root] module.servers (expand) -->
<g id="edge10" class="edge">
<title>[root] module.servers.var.servers (expand)&#45;&gt;[root] module.servers (expand)</title>
<path fill="none" stroke="black" d="M1292.42,-73.64C1217.66,-62.11 1115.65,-46.38 1040.27,-34.76"/>
<polygon fill="black" stroke="black" points="1041.26,-31.37 1030.85,-33.31 1040.2,-38.29 1041.26,-31.37"/>
</g>
<!-- [root] output.nome_dns_web&#45;east (expand) -->
<g id="node9" class="node">
<title>[root] output.nome_dns_web&#45;east (expand)</title>
<ellipse fill="none" stroke="black" cx="946.06" cy="-306" rx="206.06" ry="18"/>
<text text-anchor="middle" x="946.06" y="-302.3" font-family="Times,serif" font-size="14.00">[root] output.nome_dns_web&#45;east (expand)</text>
</g>
<!-- [root] output.nome_dns_web&#45;east (expand)&#45;&gt;[root] module.servers.output.nome_dns_web&#45;east (expand) -->
<g id="edge11" class="edge">
<title>[root] output.nome_dns_web&#45;east (expand)&#45;&gt;[root] module.servers.output.nome_dns_web&#45;east (expand)</title>
<path fill="none" stroke="black" d="M969.29,-287.7C980.93,-279.03 995.2,-268.4 1007.88,-258.96"/>
<polygon fill="black" stroke="black" points="1009.62,-262.03 1015.55,-253.25 1005.44,-256.42 1009.62,-262.03"/>
</g>
<!-- [root] provider[&quot;registry.terraform.io/hashicorp/aws&quot;] (close) -->
<g id="node10" class="node">
<title>[root] provider[&quot;registry.terraform.io/hashicorp/aws&quot;] (close)</title>
<ellipse fill="none" stroke="black" cx="430.06" cy="-234" rx="313.04" ry="18"/>
<text text-anchor="middle" x="430.06" y="-230.3" font-family="Times,serif" font-size="14.00">[root] provider[&quot;registry.terraform.io/hashicorp/aws&quot;] (close)</text>
</g>
<!-- [root] provider[&quot;registry.terraform.io/hashicorp/aws&quot;] (close)&#45;&gt;[root] module.servers.aws_instance.web&#45;east (expand) -->
<g id="edge12" class="edge">
<title>[root] provider[&quot;registry.terraform.io/hashicorp/aws&quot;] (close)&#45;&gt;[root] module.servers.aws_instance.web&#45;east (expand)</title>
<path fill="none" stroke="black" d="M547.24,-216.85C622.66,-206.46 721.02,-192.91 800.19,-182"/>
<polygon fill="black" stroke="black" points="800.31,-185.51 809.73,-180.68 799.35,-178.58 800.31,-185.51"/>
</g>
<!-- [root] provider[&quot;registry.terraform.io/hashicorp/aws&quot;] (close)&#45;&gt;[root] module.servers.data.aws_ami.ubuntu (expand) -->
<g id="edge13" class="edge">
<title>[root] provider[&quot;registry.terraform.io/hashicorp/aws&quot;] (close)&#45;&gt;[root] module.servers.data.aws_ami.ubuntu (expand)</title>
<path fill="none" stroke="black" d="M387.79,-215.7C364.96,-206.35 336.54,-194.72 312.22,-184.77"/>
<polygon fill="black" stroke="black" points="313.71,-181.59 303.13,-181.04 311.06,-188.07 313.71,-181.59"/>
</g>
<!-- [root] root -->
<g id="node11" class="node">
<title>[root] root</title>
<ellipse fill="none" stroke="black" cx="524.06" cy="-378" rx="64.19" ry="18"/>
<text text-anchor="middle" x="524.06" y="-374.3" font-family="Times,serif" font-size="14.00">[root] root</text>
</g>
<!-- [root] root&#45;&gt;[root] module.servers (close) -->
<g id="edge14" class="edge">
<title>[root] root&#45;&gt;[root] module.servers (close)</title>
<path fill="none" stroke="black" d="M487.63,-362.83C461.74,-352.77 426.54,-339.08 397.48,-327.78"/>
<polygon fill="black" stroke="black" points="399.08,-324.64 388.49,-324.28 396.54,-331.17 399.08,-324.64"/>
</g>
<!-- [root] root&#45;&gt;[root] output.nome_dns_web&#45;east (expand) -->
<g id="edge15" class="edge">
<title>[root] root&#45;&gt;[root] output.nome_dns_web&#45;east (expand)</title>
<path fill="none" stroke="black" d="M578.36,-367.99C644.66,-357 758.23,-338.16 841.65,-324.32"/>
<polygon fill="black" stroke="black" points="842.17,-327.78 851.47,-322.69 841.03,-320.87 842.17,-327.78"/>
</g>
<!-- [root] root&#45;&gt;[root] provider[&quot;registry.terraform.io/hashicorp/aws&quot;] (close) -->
<g id="edge16" class="edge">
<title>[root] root&#45;&gt;[root] provider[&quot;registry.terraform.io/hashicorp/aws&quot;] (close)</title>
<path fill="none" stroke="black" d="M524,-359.51C523.15,-340.44 519.41,-309.76 505.06,-288 497.38,-276.35 486.18,-266.48 474.78,-258.52"/>
<polygon fill="black" stroke="black" points="476.78,-255.65 466.49,-253.12 472.95,-261.51 476.78,-255.65"/>
</g>
</g>
</svg>
